<svg id="visual" viewBox="0 0 540 960" width="540" height="960" xmlns="http://www.w3.org/2000/svg" xmlns:xlink="http://www.w3.org/1999/xlink" version="1.1"><g stroke-width="1" stroke-linejoin="bevel"><path d="M274 445L212 400L215 459Z" fill="#715df2" stroke="#26283a"></path><path d="M274 445L268 364L212 400Z" fill="#17459f" stroke="#26283a"></path><path d="M268 364L201 365L212 400Z" fill="#002d5f" stroke="#26283a"></path><path d="M124 454L183 499L215 459Z" fill="#002d5f" stroke="#26283a"></path><path d="M268 364L221 341L201 365Z" fill="#2d4cb5" stroke="#26283a"></path><path d="M124 454L215 459L212 400Z" fill="#17459f" stroke="#26283a"></path><path d="M215 459L202 517L274 445Z" fill="#003574" stroke="#26283a"></path><path d="M335 451L330 412L274 445Z" fill="#715df2" stroke="#26283a"></path><path d="M274 445L330 412L268 364Z" fill="#003d8a" stroke="#26283a"></path><path d="M183 499L202 517L215 459Z" fill="#17459f" stroke="#26283a"></path><path d="M339 459L335 451L274 445Z" fill="#5958de" stroke="#26283a"></path><path d="M310 522L339 459L274 445Z" fill="#003574" stroke="#26283a"></path><path d="M335 451L366 433L330 412Z" fill="#5958de" stroke="#26283a"></path><path d="M330 412L290 336L268 364Z" fill="#715df2" stroke="#26283a"></path><path d="M268 364L290 336L221 341Z" fill="#001b35" stroke="#26283a"></path><path d="M86 375L124 454L201 365Z" fill="#715df2" stroke="#26283a"></path><path d="M201 365L124 454L212 400Z" fill="#001122" stroke="#26283a"></path><path d="M183 499L182 536L202 517Z" fill="#003574" stroke="#26283a"></path><path d="M202 517L310 522L274 445Z" fill="#002d5f" stroke="#26283a"></path><path d="M239 261L166 333L221 341Z" fill="#715df2" stroke="#26283a"></path><path d="M221 341L166 333L201 365Z" fill="#001122" stroke="#26283a"></path><path d="M121 533L182 536L183 499Z" fill="#003574" stroke="#26283a"></path><path d="M202 517L197 587L310 522Z" fill="#2d4cb5" stroke="#26283a"></path><path d="M414 454L366 433L339 459Z" fill="#5958de" stroke="#26283a"></path><path d="M339 459L366 433L335 451Z" fill="#17459f" stroke="#26283a"></path><path d="M330 412L367 363L290 336Z" fill="#17459f" stroke="#26283a"></path><path d="M393 382L367 363L330 412Z" fill="#715df2" stroke="#26283a"></path><path d="M0 455L106 492L124 454Z" fill="#001122" stroke="#26283a"></path><path d="M124 454L106 492L183 499Z" fill="#001122" stroke="#26283a"></path><path d="M392 569L362 517L310 522Z" fill="#002d5f" stroke="#26283a"></path><path d="M310 522L362 517L339 459Z" fill="#001122" stroke="#26283a"></path><path d="M106 492L121 533L183 499Z" fill="#003574" stroke="#26283a"></path><path d="M428 394L393 382L366 433Z" fill="#001122" stroke="#26283a"></path><path d="M366 433L393 382L330 412Z" fill="#002d5f" stroke="#26283a"></path><path d="M393 382L359 321L367 363Z" fill="#00244a" stroke="#26283a"></path><path d="M367 363L359 321L290 336Z" fill="#003574" stroke="#26283a"></path><path d="M290 336L239 261L221 341Z" fill="#4252ca" stroke="#26283a"></path><path d="M166 333L86 375L201 365Z" fill="#003d8a" stroke="#26283a"></path><path d="M130 565L197 587L182 536Z" fill="#5958de" stroke="#26283a"></path><path d="M182 536L197 587L202 517Z" fill="#17459f" stroke="#26283a"></path><path d="M339 204L239 261L290 336Z" fill="#003574" stroke="#26283a"></path><path d="M86 277L59 353L86 375Z" fill="#4252ca" stroke="#26283a"></path><path d="M86 375L73 386L124 454Z" fill="#003d8a" stroke="#26283a"></path><path d="M46 560L130 565L121 533Z" fill="#001b35" stroke="#26283a"></path><path d="M121 533L130 565L182 536Z" fill="#003d8a" stroke="#26283a"></path><path d="M362 517L414 454L339 459Z" fill="#715df2" stroke="#26283a"></path><path d="M392 569L395 520L362 517Z" fill="#001122" stroke="#26283a"></path><path d="M362 517L395 520L414 454Z" fill="#002d5f" stroke="#26283a"></path><path d="M239 261L140 269L166 333Z" fill="#17459f" stroke="#26283a"></path><path d="M86 375L59 353L73 386Z" fill="#2d4cb5" stroke="#26283a"></path><path d="M414 454L428 394L366 433Z" fill="#003574" stroke="#26283a"></path><path d="M393 382L418 270L359 321Z" fill="#003574" stroke="#26283a"></path><path d="M86 277L86 375L166 333Z" fill="#4252ca" stroke="#26283a"></path><path d="M0 455L34 517L106 492Z" fill="#002d5f" stroke="#26283a"></path><path d="M106 492L34 517L121 533Z" fill="#003d8a" stroke="#26283a"></path><path d="M130 565L178 621L197 587Z" fill="#715df2" stroke="#26283a"></path><path d="M197 587L223 630L310 522Z" fill="#4252ca" stroke="#26283a"></path><path d="M178 621L223 630L197 587Z" fill="#17459f" stroke="#26283a"></path><path d="M313 632L392 569L310 522Z" fill="#715df2" stroke="#26283a"></path><path d="M467 519L464 455L414 454Z" fill="#002d5f" stroke="#26283a"></path><path d="M414 454L464 455L428 394Z" fill="#2d4cb5" stroke="#26283a"></path><path d="M140 269L86 277L166 333Z" fill="#17459f" stroke="#26283a"></path><path d="M223 630L313 632L310 522Z" fill="#715df2" stroke="#26283a"></path><path d="M0 455L124 454L73 386Z" fill="#00244a" stroke="#26283a"></path><path d="M130 565L88 629L178 621Z" fill="#2d4cb5" stroke="#26283a"></path><path d="M0 291L0 346L59 353Z" fill="#715df2" stroke="#26283a"></path><path d="M91 256L81 267L86 277Z" fill="#003574" stroke="#26283a"></path><path d="M91 256L86 277L140 269Z" fill="#001b35" stroke="#26283a"></path><path d="M467 519L414 454L395 520Z" fill="#00244a" stroke="#26283a"></path><path d="M97 218L91 256L140 269Z" fill="#003d8a" stroke="#26283a"></path><path d="M210 194L204 203L239 261Z" fill="#001b35" stroke="#26283a"></path><path d="M239 261L204 203L140 269Z" fill="#001122" stroke="#26283a"></path><path d="M288 686L326 639L313 632Z" fill="#715df2" stroke="#26283a"></path><path d="M313 632L326 639L392 569Z" fill="#002d5f" stroke="#26283a"></path><path d="M464 455L468 389L428 394Z" fill="#2d4cb5" stroke="#26283a"></path><path d="M428 394L418 270L393 382Z" fill="#4252ca" stroke="#26283a"></path><path d="M261 153L210 194L239 261Z" fill="#001122" stroke="#26283a"></path><path d="M34 517L46 560L121 533Z" fill="#003d8a" stroke="#26283a"></path><path d="M339 204L290 336L359 321Z" fill="#2d4cb5" stroke="#26283a"></path><path d="M204 203L97 218L140 269Z" fill="#003d8a" stroke="#26283a"></path><path d="M468 389L418 270L428 394Z" fill="#5958de" stroke="#26283a"></path><path d="M418 270L374 230L359 321Z" fill="#002d5f" stroke="#26283a"></path><path d="M0 346L73 386L59 353Z" fill="#715df2" stroke="#26283a"></path><path d="M0 346L0 455L73 386Z" fill="#17459f" stroke="#26283a"></path><path d="M34 517L0 504L46 560Z" fill="#002d5f" stroke="#26283a"></path><path d="M0 455L0 484L34 517Z" fill="#2d4cb5" stroke="#26283a"></path><path d="M392 569L467 519L395 520Z" fill="#003d8a" stroke="#26283a"></path><path d="M540 394L511 336L468 389Z" fill="#2d4cb5" stroke="#26283a"></path><path d="M448 601L467 519L392 569Z" fill="#001122" stroke="#26283a"></path><path d="M374 230L339 204L359 321Z" fill="#001b35" stroke="#26283a"></path><path d="M264 678L277 674L223 630Z" fill="#001122" stroke="#26283a"></path><path d="M223 630L277 674L313 632Z" fill="#002d5f" stroke="#26283a"></path><path d="M264 678L223 630L168 714Z" fill="#002d5f" stroke="#26283a"></path><path d="M0 484L0 504L34 517Z" fill="#002d5f" stroke="#26283a"></path><path d="M168 714L223 630L178 621Z" fill="#2d4cb5" stroke="#26283a"></path><path d="M55 623L88 629L46 560Z" fill="#5958de" stroke="#26283a"></path><path d="M46 560L88 629L130 565Z" fill="#17459f" stroke="#26283a"></path><path d="M34 271L86 277L81 267Z" fill="#4252ca" stroke="#26283a"></path><path d="M34 271L59 353L86 277Z" fill="#2d4cb5" stroke="#26283a"></path><path d="M92 175L97 218L204 203Z" fill="#001b35" stroke="#26283a"></path><path d="M91 256L34 271L81 267Z" fill="#17459f" stroke="#26283a"></path><path d="M97 218L34 271L91 256Z" fill="#001b35" stroke="#26283a"></path><path d="M420 206L376 205L374 230Z" fill="#5958de" stroke="#26283a"></path><path d="M374 230L376 205L339 204Z" fill="#001b35" stroke="#26283a"></path><path d="M339 204L261 153L239 261Z" fill="#5958de" stroke="#26283a"></path><path d="M277 674L288 686L313 632Z" fill="#2d4cb5" stroke="#26283a"></path><path d="M447 637L448 601L392 569Z" fill="#001b35" stroke="#26283a"></path><path d="M264 678L288 686L277 674Z" fill="#00244a" stroke="#26283a"></path><path d="M273 750L288 686L264 678Z" fill="#17459f" stroke="#26283a"></path><path d="M0 612L55 623L46 560Z" fill="#715df2" stroke="#26283a"></path><path d="M88 629L168 714L178 621Z" fill="#4252ca" stroke="#26283a"></path><path d="M447 637L392 569L404 687Z" fill="#00244a" stroke="#26283a"></path><path d="M0 272L0 291L34 271Z" fill="#2d4cb5" stroke="#26283a"></path><path d="M34 271L0 291L59 353Z" fill="#002d5f" stroke="#26283a"></path><path d="M266 151L261 153L339 204Z" fill="#5958de" stroke="#26283a"></path><path d="M146 130L92 175L204 203Z" fill="#003574" stroke="#26283a"></path><path d="M348 139L266 151L339 204Z" fill="#17459f" stroke="#26283a"></path><path d="M261 153L240 143L210 194Z" fill="#001122" stroke="#26283a"></path><path d="M448 601L492 551L467 519Z" fill="#001122" stroke="#26283a"></path><path d="M467 519L540 482L464 455Z" fill="#4252ca" stroke="#26283a"></path><path d="M255 138L240 143L261 153Z" fill="#4252ca" stroke="#26283a"></path><path d="M0 217L0 272L34 271Z" fill="#2d4cb5" stroke="#26283a"></path><path d="M465 208L420 206L418 270Z" fill="#2d4cb5" stroke="#26283a"></path><path d="M418 270L420 206L374 230Z" fill="#715df2" stroke="#26283a"></path><path d="M348 139L255 138L266 151Z" fill="#003d8a" stroke="#26283a"></path><path d="M540 394L468 389L464 455Z" fill="#2d4cb5" stroke="#26283a"></path><path d="M468 389L511 336L418 270Z" fill="#715df2" stroke="#26283a"></path><path d="M394 170L339 204L376 205Z" fill="#001122" stroke="#26283a"></path><path d="M266 151L255 138L261 153Z" fill="#2d4cb5" stroke="#26283a"></path><path d="M146 130L204 203L210 194Z" fill="#17459f" stroke="#26283a"></path><path d="M97 218L0 217L34 271Z" fill="#00244a" stroke="#26283a"></path><path d="M146 130L210 194L240 143Z" fill="#5958de" stroke="#26283a"></path><path d="M53 698L168 714L88 629Z" fill="#003d8a" stroke="#26283a"></path><path d="M448 601L540 635L492 551Z" fill="#003d8a" stroke="#26283a"></path><path d="M404 687L392 569L326 639Z" fill="#5958de" stroke="#26283a"></path><path d="M420 206L394 170L376 205Z" fill="#2d4cb5" stroke="#26283a"></path><path d="M0 504L0 612L46 560Z" fill="#715df2" stroke="#26283a"></path><path d="M55 623L53 698L88 629Z" fill="#17459f" stroke="#26283a"></path><path d="M540 482L540 394L464 455Z" fill="#2d4cb5" stroke="#26283a"></path><path d="M354 733L326 639L288 686Z" fill="#00244a" stroke="#26283a"></path><path d="M354 733L393 691L326 639Z" fill="#5958de" stroke="#26283a"></path><path d="M540 512L467 519L492 551Z" fill="#001b35" stroke="#26283a"></path><path d="M540 512L540 482L467 519Z" fill="#2d4cb5" stroke="#26283a"></path><path d="M393 691L404 687L326 639Z" fill="#00244a" stroke="#26283a"></path><path d="M394 170L348 139L339 204Z" fill="#001b35" stroke="#26283a"></path><path d="M144 57L146 130L240 143Z" fill="#003574" stroke="#26283a"></path><path d="M108 109L146 130L144 57Z" fill="#003574" stroke="#26283a"></path><path d="M540 635L540 512L492 551Z" fill="#00244a" stroke="#26283a"></path><path d="M540 394L540 344L511 336Z" fill="#5958de" stroke="#26283a"></path><path d="M480 214L465 208L418 270Z" fill="#001b35" stroke="#26283a"></path><path d="M420 206L407 139L394 170Z" fill="#4252ca" stroke="#26283a"></path><path d="M480 214L418 270L540 276Z" fill="#003574" stroke="#26283a"></path><path d="M394 170L407 139L348 139Z" fill="#5958de" stroke="#26283a"></path><path d="M92 175L0 217L97 218Z" fill="#00244a" stroke="#26283a"></path><path d="M35 132L0 217L92 175Z" fill="#00244a" stroke="#26283a"></path><path d="M0 612L0 642L55 623Z" fill="#17459f" stroke="#26283a"></path><path d="M540 276L418 270L511 336Z" fill="#00244a" stroke="#26283a"></path><path d="M480 157L407 139L420 206Z" fill="#5958de" stroke="#26283a"></path><path d="M168 714L273 750L264 678Z" fill="#003d8a" stroke="#26283a"></path><path d="M393 691L418 771L404 687Z" fill="#4252ca" stroke="#26283a"></path><path d="M289 760L354 733L288 686Z" fill="#4252ca" stroke="#26283a"></path><path d="M0 642L53 698L55 623Z" fill="#00244a" stroke="#26283a"></path><path d="M232 801L289 760L273 750Z" fill="#00244a" stroke="#26283a"></path><path d="M404 687L481 654L447 637Z" fill="#715df2" stroke="#26283a"></path><path d="M447 637L481 654L448 601Z" fill="#4252ca" stroke="#26283a"></path><path d="M492 704L481 654L404 687Z" fill="#00244a" stroke="#26283a"></path><path d="M480 157L420 206L465 208Z" fill="#003574" stroke="#26283a"></path><path d="M144 57L240 143L234 28Z" fill="#003574" stroke="#26283a"></path><path d="M194 791L273 750L168 714Z" fill="#001b35" stroke="#26283a"></path><path d="M273 750L289 760L288 686Z" fill="#4252ca" stroke="#26283a"></path><path d="M540 344L540 276L511 336Z" fill="#001b35" stroke="#26283a"></path><path d="M95 762L150 759L168 714Z" fill="#17459f" stroke="#26283a"></path><path d="M339 69L255 138L348 139Z" fill="#17459f" stroke="#26283a"></path><path d="M146 130L108 109L92 175Z" fill="#17459f" stroke="#26283a"></path><path d="M108 109L35 132L92 175Z" fill="#715df2" stroke="#26283a"></path><path d="M540 276L540 230L480 214Z" fill="#00244a" stroke="#26283a"></path><path d="M480 214L480 157L465 208Z" fill="#002d5f" stroke="#26283a"></path><path d="M540 159L480 157L480 214Z" fill="#001122" stroke="#26283a"></path><path d="M62 757L95 762L53 698Z" fill="#003574" stroke="#26283a"></path><path d="M53 698L95 762L168 714Z" fill="#001122" stroke="#26283a"></path><path d="M150 759L194 791L168 714Z" fill="#001b35" stroke="#26283a"></path><path d="M540 699L540 635L481 654Z" fill="#002d5f" stroke="#26283a"></path><path d="M481 654L540 635L448 601Z" fill="#001b35" stroke="#26283a"></path><path d="M151 841L194 791L150 759Z" fill="#002d5f" stroke="#26283a"></path><path d="M194 791L232 801L273 750Z" fill="#003574" stroke="#26283a"></path><path d="M343 808L418 771L354 733Z" fill="#715df2" stroke="#26283a"></path><path d="M418 771L492 704L404 687Z" fill="#003574" stroke="#26283a"></path><path d="M427 75L339 69L407 139Z" fill="#002d5f" stroke="#26283a"></path><path d="M407 139L339 69L348 139Z" fill="#003d8a" stroke="#26283a"></path><path d="M0 755L62 757L53 698Z" fill="#003574" stroke="#26283a"></path><path d="M95 762L113 794L150 759Z" fill="#001b35" stroke="#26283a"></path><path d="M194 791L212 816L232 801Z" fill="#001122" stroke="#26283a"></path><path d="M418 771L393 691L354 733Z" fill="#002d5f" stroke="#26283a"></path><path d="M234 28L240 143L255 138Z" fill="#00244a" stroke="#26283a"></path><path d="M0 68L0 120L35 132Z" fill="#17459f" stroke="#26283a"></path><path d="M343 808L354 733L289 760Z" fill="#00244a" stroke="#26283a"></path><path d="M62 757L113 794L95 762Z" fill="#00244a" stroke="#26283a"></path><path d="M151 841L212 816L194 791Z" fill="#003574" stroke="#26283a"></path><path d="M323 828L343 808L289 760Z" fill="#715df2" stroke="#26283a"></path><path d="M35 132L0 120L0 217Z" fill="#00244a" stroke="#26283a"></path><path d="M59 61L35 132L108 109Z" fill="#17459f" stroke="#26283a"></path><path d="M144 57L98 63L108 109Z" fill="#002d5f" stroke="#26283a"></path><path d="M323 828L289 760L232 801Z" fill="#4252ca" stroke="#26283a"></path><path d="M480 157L427 75L407 139Z" fill="#00244a" stroke="#26283a"></path><path d="M447 36L427 75L540 82Z" fill="#002d5f" stroke="#26283a"></path><path d="M288 29L255 138L339 69Z" fill="#002d5f" stroke="#26283a"></path><path d="M288 29L234 28L255 138Z" fill="#715df2" stroke="#26283a"></path><path d="M82 0L59 61L98 63Z" fill="#17459f" stroke="#26283a"></path><path d="M338 0L288 29L339 69Z" fill="#001b35" stroke="#26283a"></path><path d="M540 230L540 159L480 214Z" fill="#2d4cb5" stroke="#26283a"></path><path d="M62 757L31 807L113 794Z" fill="#4252ca" stroke="#26283a"></path><path d="M0 642L0 755L53 698Z" fill="#2d4cb5" stroke="#26283a"></path><path d="M540 732L540 699L492 704Z" fill="#715df2" stroke="#26283a"></path><path d="M492 704L540 699L481 654Z" fill="#17459f" stroke="#26283a"></path><path d="M410 846L487 800L418 771Z" fill="#715df2" stroke="#26283a"></path><path d="M487 800L540 732L492 704Z" fill="#003574" stroke="#26283a"></path><path d="M293 869L323 828L232 801Z" fill="#715df2" stroke="#26283a"></path><path d="M104 0L98 63L144 57Z" fill="#003d8a" stroke="#26283a"></path><path d="M98 63L59 61L108 109Z" fill="#17459f" stroke="#26283a"></path><path d="M107 914L151 841L113 794Z" fill="#003574" stroke="#26283a"></path><path d="M113 794L151 841L150 759Z" fill="#00244a" stroke="#26283a"></path><path d="M250 886L293 869L232 801Z" fill="#2d4cb5" stroke="#26283a"></path><path d="M487 800L492 704L418 771Z" fill="#4252ca" stroke="#26283a"></path><path d="M288 29L249 0L234 28Z" fill="#001b35" stroke="#26283a"></path><path d="M234 28L208 0L144 57Z" fill="#17459f" stroke="#26283a"></path><path d="M338 0L249 0L288 29Z" fill="#17459f" stroke="#26283a"></path><path d="M249 0L208 0L234 28Z" fill="#001b35" stroke="#26283a"></path><path d="M0 755L31 807L62 757Z" fill="#00244a" stroke="#26283a"></path><path d="M0 0L0 68L59 61Z" fill="#17459f" stroke="#26283a"></path><path d="M59 61L0 68L35 132Z" fill="#2d4cb5" stroke="#26283a"></path><path d="M0 755L0 793L31 807Z" fill="#17459f" stroke="#26283a"></path><path d="M345 0L339 69L385 0Z" fill="#003d8a" stroke="#26283a"></path><path d="M345 0L338 0L339 69Z" fill="#001b35" stroke="#26283a"></path><path d="M385 0L339 69L427 75Z" fill="#003574" stroke="#26283a"></path><path d="M540 89L427 75L480 157Z" fill="#001b35" stroke="#26283a"></path><path d="M250 886L232 801L212 816Z" fill="#5958de" stroke="#26283a"></path><path d="M410 846L418 771L343 808Z" fill="#4252ca" stroke="#26283a"></path><path d="M151 841L209 872L212 816Z" fill="#17459f" stroke="#26283a"></path><path d="M177 891L209 872L151 841Z" fill="#003574" stroke="#26283a"></path><path d="M410 846L343 808L392 860Z" fill="#003574" stroke="#26283a"></path><path d="M0 793L0 808L31 807Z" fill="#00244a" stroke="#26283a"></path><path d="M107 914L177 891L151 841Z" fill="#2d4cb5" stroke="#26283a"></path><path d="M208 0L104 0L144 57Z" fill="#001122" stroke="#26283a"></path><path d="M392 860L343 808L323 828Z" fill="#2d4cb5" stroke="#26283a"></path><path d="M447 36L385 0L427 75Z" fill="#00244a" stroke="#26283a"></path><path d="M540 159L540 89L480 157Z" fill="#001b35" stroke="#26283a"></path><path d="M447 36L472 0L385 0Z" fill="#002d5f" stroke="#26283a"></path><path d="M104 0L82 0L98 63Z" fill="#003574" stroke="#26283a"></path><path d="M209 872L250 886L212 816Z" fill="#002d5f" stroke="#26283a"></path><path d="M349 915L392 860L323 828Z" fill="#00244a" stroke="#26283a"></path><path d="M213 960L250 886L209 872Z" fill="#4252ca" stroke="#26283a"></path><path d="M441 873L392 860L426 909Z" fill="#17459f" stroke="#26283a"></path><path d="M540 817L540 805L487 800Z" fill="#17459f" stroke="#26283a"></path><path d="M540 89L540 82L427 75Z" fill="#001b35" stroke="#26283a"></path><path d="M107 914L113 794L31 807Z" fill="#2d4cb5" stroke="#26283a"></path><path d="M487 800L540 805L540 732Z" fill="#715df2" stroke="#26283a"></path><path d="M441 873L487 800L410 846Z" fill="#002d5f" stroke="#26283a"></path><path d="M540 82L472 0L447 36Z" fill="#715df2" stroke="#26283a"></path><path d="M349 915L323 828L293 869Z" fill="#715df2" stroke="#26283a"></path><path d="M392 860L441 873L410 846Z" fill="#715df2" stroke="#26283a"></path><path d="M349 915L293 869L280 960Z" fill="#002d5f" stroke="#26283a"></path><path d="M82 0L0 0L59 61Z" fill="#001b35" stroke="#26283a"></path><path d="M441 873L540 817L487 800Z" fill="#00244a" stroke="#26283a"></path><path d="M280 960L293 869L250 886Z" fill="#5958de" stroke="#26283a"></path><path d="M30 900L107 914L31 807Z" fill="#002d5f" stroke="#26283a"></path><path d="M177 891L213 960L209 872Z" fill="#003574" stroke="#26283a"></path><path d="M349 915L426 909L392 860Z" fill="#17459f" stroke="#26283a"></path><path d="M441 873L482 924L540 817Z" fill="#002d5f" stroke="#26283a"></path><path d="M0 808L30 900L31 807Z" fill="#17459f" stroke="#26283a"></path><path d="M540 82L540 0L472 0Z" fill="#001122" stroke="#26283a"></path><path d="M149 960L177 891L107 914Z" fill="#5958de" stroke="#26283a"></path><path d="M149 960L213 960L177 891Z" fill="#2d4cb5" stroke="#26283a"></path><path d="M349 915L404 960L426 909Z" fill="#17459f" stroke="#26283a"></path><path d="M213 960L280 960L250 886Z" fill="#2d4cb5" stroke="#26283a"></path><path d="M0 808L0 907L30 900Z" fill="#17459f" stroke="#26283a"></path><path d="M109 960L149 960L107 914Z" fill="#001122" stroke="#26283a"></path><path d="M280 960L325 960L349 915Z" fill="#00244a" stroke="#26283a"></path><path d="M109 960L107 914L63 960Z" fill="#003574" stroke="#26283a"></path><path d="M63 960L107 914L30 900Z" fill="#5958de" stroke="#26283a"></path><path d="M486 960L482 924L426 909Z" fill="#2d4cb5" stroke="#26283a"></path><path d="M426 909L482 924L441 873Z" fill="#5958de" stroke="#26283a"></path><path d="M325 960L404 960L349 915Z" fill="#001122" stroke="#26283a"></path><path d="M0 960L63 960L30 900Z" fill="#001b35" stroke="#26283a"></path><path d="M540 960L540 917L482 924Z" fill="#2d4cb5" stroke="#26283a"></path><path d="M482 924L540 917L540 817Z" fill="#001b35" stroke="#26283a"></path><path d="M0 907L0 960L30 900Z" fill="#5958de" stroke="#26283a"></path><path d="M404 960L486 960L426 909Z" fill="#003574" stroke="#26283a"></path><path d="M486 960L540 960L482 924Z" fill="#5958de" stroke="#26283a"></path></g></svg>